<svg xmlns="http://www.w3.org/2000/svg" version="1.1" xmlns:xlink="http://www.w3.org/1999/xlink" xmlns:svgjs="http://svgjs.dev/svgjs" width="1500" height="1500" viewBox="0 0 1500 1500"><rect width="1500" height="1500" fill="#000000"></rect><g transform="matrix(0.6666666666666666,0,0,0.6666666666666666,249.39393939393938,686.6681788326088)"><svg viewBox="0 0 396 50" data-background-color="#000000" preserveAspectRatio="xMidYMid meet" height="189" width="1500" xmlns="http://www.w3.org/2000/svg" xmlns:xlink="http://www.w3.org/1999/xlink"><g id="tight-bounds" transform="matrix(1,0,0,1,0.2400000000000091,0.13167506642508897)"><svg viewBox="0 0 395.52 49.736649867149815" height="49.736649867149815" width="395.52"><g><svg viewBox="0 0 496.0150109405374 62.37389999999999" height="49.736649867149815" width="395.52"><g><svg viewBox="0 0 496.0150109405374 62.37389999999999" height="62.37389999999999" width="496.0150109405374"><g id="textblocktransform"><svg viewBox="0 0 496.0150109405374 62.37389999999999" height="62.37389999999999" width="496.0150109405374" id="textblock"><g><svg viewBox="0 0 496.0150109405374 62.37389999999999" height="62.37389999999999" width="496.0150109405374"><g><svg><g></g><g></g></svg></g><g><svg><g></g><g><svg></svg></g></svg></g><g id="text-0"><svg viewBox="0 0 496.0150109405374 62.37389999999999" height="62.37389999999999" width="496.0150109405374"><g><svg version="1.0" xmlns="http://www.w3.org/2000/svg" xmlns:xlink="http://www.w3.org/1999/xlink" x="0" y="3.552713678800501e-15" viewBox="0 0 100 49.897" enable-background="new 0 0 100 49.896" xml:space="preserve" id="dxe-0" width="125.00531094053748" height="62.373899999999985" class="icon-dxe-0" data-fill-palette-color="accent"></svg></g><g transform="matrix(1,0,0,1,139.73141094053747,0)"><svg width="356.2836" viewBox="2.05 -37.9 220.17999999999998 38.55" height="62.37389999999999" data-palette-color="#ff6cab"><path d="M17.9-24.6L17.2-21.05Q15.1-21.7 13.48-21.93 11.85-22.15 10.5-22.15L10.5-22.15Q8.75-22.15 7.58-21.3 6.4-20.45 6.4-19.1L6.4-19.1Q6.45-17.9 7.45-17.05 8.45-16.2 9.78-15.53 11.1-14.85 12.73-14.05 14.35-13.25 15.78-12.25 17.2-11.25 18.1-9.85 19-8.45 19.05-6.5L19.05-6.5Q19-4.4 18.13-3.03 17.25-1.65 15.88-0.83 14.5 0 12.9 0.33 11.3 0.65 9.9 0.65L9.9 0.65Q8.1 0.65 6.18 0.45 4.25 0.25 2.05-0.4L2.05-0.4 2.8-4Q5.05-3.4 6.9-3.13 8.75-2.85 9.95-2.85L9.95-2.85Q10.85-2.85 11.73-3.05 12.6-3.25 13.3-3.63 14-4 14.43-4.6 14.85-5.2 14.85-5.95L14.85-5.95Q14.8-7.35 13.9-8.33 13-9.3 11.58-10.08 10.15-10.85 8.53-11.63 6.9-12.4 5.48-13.43 4.05-14.45 3.1-15.88 2.15-17.3 2.15-19.4L2.15-19.4Q2.15-20.9 2.93-22.08 3.7-23.25 4.93-24.03 6.15-24.8 7.63-25.23 9.1-25.65 10.5-25.65L10.5-25.65Q11.95-25.65 13.75-25.43 15.55-25.2 17.9-24.6L17.9-24.6ZM28.55 0L21.75-25.15 25.95-25.15 28.9-13.8Q29.3-12.35 29.62-10.73 29.95-9.1 30.25-7.7L30.25-7.7Q30.55-6.05 30.9-4.45L30.9-4.45 30.95-4.45Q31.3-6.05 31.75-7.7L31.75-7.7Q32.15-9.1 32.6-10.73 33.05-12.35 33.5-13.8L33.5-13.8 37.05-25.15 42.4-25.15 45.25-13.8Q45.6-12.35 45.97-10.73 46.35-9.1 46.6-7.7L46.6-7.7Q46.9-6.05 47.2-4.45L47.2-4.45 47.25-4.45Q47.7-6.1 48.2-7.75L48.2-7.75Q48.6-9.15 49.1-10.78 49.6-12.4 50.05-13.8L50.05-13.8 53.55-25.15 57.7-25.15 49.45 0 45 0 41.4-13.8Q40.9-15.7 40.57-17.23 40.25-18.75 40-19.8L40-19.8Q39.75-21.05 39.55-22L39.55-22 39.45-22Q39.25-21.05 38.95-19.8L38.95-19.8Q38.7-18.75 38.25-17.23 37.8-15.7 37.25-13.8L37.25-13.8 33 0 28.55 0ZM61.95 0L61.95-25.2 65.94-25.65 65.94 0 61.95 0ZM61.3-32.35L61.3-32.35Q61.3-33.5 62.07-34.27 62.84-35.05 63.99-35.05L63.99-35.05Q65.19-35.05 66.02-34.27 66.84-33.5 66.84-32.35L66.84-32.35Q66.84-31.2 66.02-30.43 65.19-29.65 63.99-29.65L63.99-29.65Q62.84-29.65 62.07-30.43 61.3-31.2 61.3-32.35ZM75.29 0L75.29-21.9 70.64-21.9 70.64-25.15 75.29-25.15Q75.29-28.65 75.77-31.08 76.24-33.5 77.29-35.02 78.34-36.55 79.99-37.23 81.64-37.9 83.99-37.9L83.99-37.9Q85.89-37.9 87.54-37.27 89.19-36.65 90.19-35.75L90.19-35.75 88.44-32.75Q87.44-33.5 86.37-33.95 85.29-34.4 84.04-34.4L84.04-34.4Q82.39-34.4 81.44-33.68 80.49-32.95 80.02-31.7 79.54-30.45 79.42-28.78 79.29-27.1 79.29-25.15L79.29-25.15 85.54-25.15 85.54-21.9 79.29-21.9 79.29 0 75.29 0ZM91.99-32.15L95.99-32.65 95.99-25.15 103.24-25.15 103.24-21.9 95.99-21.9 95.99-8.55Q95.99-6.9 96.07-5.8 96.14-4.7 96.39-4.05 96.64-3.4 97.09-3.13 97.54-2.85 98.24-2.85L98.24-2.85Q100.14-2.9 102.64-4.25L102.64-4.25 103.84-1.2Q102.19-0.1 100.77 0.28 99.34 0.65 97.94 0.65L97.94 0.65Q94.64 0.65 93.32-1.23 91.99-3.1 91.99-7.45L91.99-7.45 91.99-21.9 87.39-21.9 87.39-25.15 91.99-25.15 91.99-32.15ZM108.39 0L108.39-20.6Q108.39-22.3 108.09-24.7L108.09-24.7 111.84-25.2 112.39-22.05Q113.74-23.05 115.04-23.8 116.34-24.55 117.84-25.1 119.34-25.65 120.89-25.65L120.89-25.65Q123.39-25.65 124.84-24.78 126.29-23.9 126.99-21.8L126.99-21.8Q129.04-23.25 131.26-24.45 133.49-25.65 135.89-25.65L135.89-25.65Q137.74-25.65 139.04-25.18 140.34-24.7 141.14-23.6 141.94-22.5 142.29-20.7 142.64-18.9 142.64-16.2L142.64-16.2 142.64 0 138.64 0 138.64-15.75Q138.64-17.25 138.59-18.43 138.54-19.6 138.24-20.43 137.94-21.25 137.26-21.7 136.59-22.15 135.34-22.15L135.34-22.15Q134.19-22.15 133.16-21.83 132.14-21.5 131.04-20.9 129.94-20.3 127.64-18.45L127.64-18.45 127.64 0 123.64 0 123.64-15.75Q123.64-17.25 123.59-18.43 123.54-19.6 123.24-20.43 122.94-21.25 122.26-21.7 121.59-22.15 120.34-22.15L120.34-22.15Q119.04-22.15 117.64-21.6 116.24-21.05 114.99-20.3 113.74-19.55 112.39-18.55L112.39-18.55 112.39 0 108.39 0ZM152.53-12.45L152.53-12.45Q152.53-7.6 154.71-5.23 156.89-2.85 160.59-2.85L160.59-2.85Q164.24-2.85 166.29-5.2 168.34-7.55 168.34-12.25L168.34-12.25Q168.34-17.25 166.16-19.7 163.99-22.15 160.24-22.15L160.24-22.15Q156.49-22.15 154.51-19.73 152.53-17.3 152.53-12.45ZM148.28-12.5L148.28-12.5Q148.28-16.3 149.49-18.82 150.69-21.35 152.53-22.88 154.39-24.4 156.51-25.03 158.64-25.65 160.53-25.65L160.53-25.65Q162.34-25.65 164.46-25.08 166.59-24.5 168.39-23.03 170.19-21.55 171.39-19.07 172.59-16.6 172.59-12.8L172.59-12.8Q172.59-8.85 171.36-6.25 170.14-3.65 168.29-2.13 166.44-0.6 164.28 0.03 162.14 0.65 160.28 0.65L160.28 0.65Q158.39 0.65 156.28 0.05 154.19-0.55 152.41-2.02 150.64-3.5 149.46-6.05 148.28-8.6 148.28-12.5ZM184.33 0L175.08-25.15 179.48-25.15 185.58-7.4 186.68-3.45 186.73-3.45 187.88-7.4 194.38-25.15 198.58-25.15 188.83 0 184.33 0ZM220.23-3.95L220.98-0.6Q219.83-0.25 218.61 0 217.38 0.25 215.91 0.45 214.43 0.65 212.83 0.65L212.83 0.65Q210.33 0.65 208.18-0.05 206.03-0.75 204.43-2.3 202.83-3.85 201.91-6.33 200.98-8.8 200.98-12.4L200.98-12.4Q200.98-15.65 201.88-18.13 202.78-20.6 204.36-22.28 205.93-23.95 208.06-24.8 210.18-25.65 212.68-25.65L212.68-25.65Q215.13-25.65 216.93-24.7 218.73-23.75 219.91-22.13 221.08-20.5 221.66-18.32 222.23-16.15 222.23-13.75L222.23-13.75 221.48-11.55 205.33-11.55Q205.33-10 205.73-8.45 206.13-6.9 207.11-5.65 208.08-4.4 209.66-3.63 211.23-2.85 213.58-2.85L213.58-2.85Q215.08-2.85 216.33-3.03 217.58-3.2 218.51-3.43 219.43-3.65 220.23-3.95L220.23-3.95ZM205.48-14.75L218.08-14.75Q218.08-15.1 217.93-16.3 217.78-17.5 217.23-18.8 216.68-20.1 215.53-21.13 214.38-22.15 212.48-22.15L212.48-22.15Q210.38-22.15 209.03-21.28 207.68-20.4 206.88-19.2 206.08-18 205.78-16.75 205.48-15.5 205.48-14.75L205.48-14.75Z" opacity="1" transform="matrix(1,0,0,1,0,0)" fill="#ffffff" class="wordmark-text-0" data-fill-palette-color="primary"></path></svg></g></svg></g></svg></g></svg></g></svg></g></svg></g><defs></defs><mask id="b2b473c1-b353-4ac8-a849-b5f959507f41"><g id="SvgjsG4000"><svg viewBox="0 0 395.52 49.736649867149815" height="49.736649867149815" width="395.52"><g><svg viewBox="0 0 496.0150109405374 62.37389999999999" height="49.736649867149815" width="395.52"><g><svg viewBox="0 0 496.0150109405374 62.37389999999999" height="62.37389999999999" width="496.0150109405374"><g id="SvgjsG3999"><svg viewBox="0 0 496.0150109405374 62.37389999999999" height="62.37389999999999" width="496.0150109405374" id="SvgjsSvg3998"><g><svg viewBox="0 0 496.0150109405374 62.37389999999999" height="62.37389999999999" width="496.0150109405374"><g><svg><g></g><g></g></svg></g><g><svg><g></g><g><svg></svg></g></svg></g><g id="SvgjsG3997"><svg viewBox="0 0 496.0150109405374 62.37389999999999" height="62.37389999999999" width="496.0150109405374"><g><svg version="1.0" xmlns="http://www.w3.org/2000/svg" xmlns:xlink="http://www.w3.org/1999/xlink" x="0" y="3.552713678800501e-15" viewBox="0 0 100 49.897" enable-background="new 0 0 100 49.896" xml:space="preserve" id="SvgjsSvg3996" width="125.00531094053748" height="62.373899999999985" class="icon-dxe-0" data-fill-palette-color="accent"><path fill-rule="evenodd" clip-rule="evenodd" d="M89.246 39.297H100V0H31.951V6.746H22.611C18.791 6.746 16.414 6.746 14.834 12.071L12.23 22.46H6.154C3.174 22.46 3.174 22.46 3.174 25.367V39.298H0V42.513H11.399C11.994 46.907 14.753 49.897 19.115 49.897 23.448 49.897 26.387 46.838 27.365 42.513H31.95V39.298H72.053C71.974 39.717 71.938 40.611 71.938 41.066 71.938 45.936 75.866 49.897 80.682 49.897 85.494 49.897 89.411 45.936 89.411 41.066A9.7 9.7 0 0 0 89.246 39.297" fill="white"></path></svg></g><g transform="matrix(1,0,0,1,139.73141094053747,0)"><svg width="356.2836" viewBox="2.05 -37.9 220.17999999999998 38.55" height="62.37389999999999" data-palette-color="#ff6cab"><path d="M17.9-24.6L17.2-21.05Q15.1-21.7 13.48-21.93 11.85-22.15 10.5-22.15L10.5-22.15Q8.75-22.15 7.58-21.3 6.4-20.45 6.4-19.1L6.4-19.1Q6.45-17.9 7.45-17.05 8.45-16.2 9.78-15.53 11.1-14.85 12.73-14.05 14.35-13.25 15.78-12.25 17.2-11.25 18.1-9.85 19-8.45 19.05-6.5L19.05-6.5Q19-4.4 18.13-3.03 17.25-1.65 15.88-0.83 14.5 0 12.9 0.33 11.3 0.65 9.9 0.65L9.9 0.65Q8.1 0.65 6.18 0.45 4.25 0.25 2.05-0.4L2.05-0.4 2.8-4Q5.05-3.4 6.9-3.13 8.75-2.85 9.95-2.85L9.95-2.85Q10.85-2.85 11.73-3.05 12.6-3.25 13.3-3.63 14-4 14.43-4.6 14.85-5.2 14.85-5.95L14.85-5.95Q14.8-7.35 13.9-8.33 13-9.3 11.58-10.08 10.15-10.85 8.53-11.63 6.9-12.4 5.48-13.43 4.05-14.45 3.1-15.88 2.15-17.3 2.15-19.4L2.15-19.4Q2.15-20.9 2.93-22.08 3.7-23.25 4.93-24.03 6.15-24.8 7.63-25.23 9.1-25.65 10.5-25.65L10.5-25.65Q11.95-25.65 13.75-25.43 15.55-25.2 17.9-24.6L17.9-24.6ZM28.55 0L21.75-25.15 25.95-25.15 28.9-13.8Q29.3-12.35 29.62-10.73 29.95-9.1 30.25-7.7L30.25-7.7Q30.55-6.05 30.9-4.45L30.9-4.45 30.95-4.45Q31.3-6.05 31.75-7.7L31.75-7.7Q32.15-9.1 32.6-10.73 33.05-12.35 33.5-13.8L33.5-13.8 37.05-25.15 42.4-25.15 45.25-13.8Q45.6-12.35 45.97-10.73 46.35-9.1 46.6-7.7L46.6-7.7Q46.9-6.05 47.2-4.45L47.2-4.45 47.25-4.45Q47.7-6.1 48.2-7.75L48.2-7.75Q48.6-9.15 49.1-10.78 49.6-12.4 50.05-13.8L50.05-13.8 53.55-25.15 57.7-25.15 49.45 0 45 0 41.4-13.8Q40.9-15.7 40.57-17.23 40.25-18.75 40-19.8L40-19.8Q39.75-21.05 39.55-22L39.55-22 39.45-22Q39.25-21.05 38.95-19.8L38.95-19.8Q38.7-18.75 38.25-17.23 37.8-15.7 37.25-13.8L37.25-13.8 33 0 28.55 0ZM61.95 0L61.95-25.2 65.94-25.65 65.94 0 61.95 0ZM61.3-32.35L61.3-32.35Q61.3-33.5 62.07-34.27 62.84-35.05 63.99-35.05L63.99-35.05Q65.19-35.05 66.02-34.27 66.84-33.5 66.84-32.35L66.84-32.35Q66.84-31.2 66.02-30.43 65.19-29.65 63.99-29.65L63.99-29.65Q62.84-29.65 62.07-30.43 61.3-31.2 61.3-32.35ZM75.29 0L75.29-21.9 70.64-21.9 70.64-25.15 75.29-25.15Q75.29-28.65 75.77-31.08 76.24-33.5 77.29-35.02 78.34-36.55 79.99-37.23 81.64-37.9 83.99-37.9L83.99-37.9Q85.89-37.9 87.54-37.27 89.19-36.65 90.19-35.75L90.19-35.75 88.44-32.75Q87.44-33.5 86.37-33.95 85.29-34.4 84.04-34.4L84.04-34.4Q82.39-34.4 81.44-33.68 80.49-32.95 80.02-31.7 79.54-30.45 79.42-28.78 79.29-27.1 79.29-25.15L79.29-25.15 85.54-25.15 85.54-21.9 79.29-21.9 79.29 0 75.29 0ZM91.99-32.15L95.99-32.65 95.99-25.15 103.24-25.15 103.24-21.9 95.99-21.9 95.99-8.55Q95.99-6.9 96.07-5.8 96.14-4.7 96.39-4.05 96.64-3.4 97.09-3.13 97.54-2.85 98.24-2.85L98.24-2.85Q100.14-2.9 102.64-4.25L102.64-4.25 103.84-1.2Q102.19-0.1 100.77 0.28 99.34 0.65 97.94 0.65L97.94 0.65Q94.64 0.65 93.32-1.23 91.99-3.1 91.99-7.45L91.99-7.45 91.99-21.9 87.39-21.9 87.39-25.15 91.99-25.15 91.99-32.15ZM108.39 0L108.39-20.6Q108.39-22.3 108.09-24.7L108.09-24.7 111.84-25.2 112.39-22.05Q113.74-23.05 115.04-23.8 116.34-24.55 117.84-25.1 119.34-25.65 120.89-25.65L120.89-25.65Q123.39-25.65 124.84-24.78 126.29-23.9 126.99-21.8L126.99-21.8Q129.04-23.25 131.26-24.45 133.49-25.65 135.89-25.65L135.89-25.65Q137.74-25.65 139.04-25.18 140.34-24.7 141.14-23.6 141.94-22.5 142.29-20.7 142.64-18.9 142.64-16.2L142.64-16.2 142.64 0 138.64 0 138.64-15.75Q138.64-17.25 138.59-18.43 138.54-19.6 138.24-20.43 137.94-21.25 137.26-21.7 136.59-22.15 135.34-22.15L135.34-22.15Q134.19-22.15 133.16-21.83 132.14-21.5 131.04-20.9 129.94-20.3 127.64-18.45L127.64-18.45 127.64 0 123.64 0 123.64-15.75Q123.64-17.25 123.59-18.43 123.54-19.6 123.24-20.43 122.94-21.25 122.26-21.7 121.59-22.15 120.34-22.15L120.34-22.15Q119.04-22.15 117.64-21.6 116.24-21.05 114.99-20.3 113.74-19.55 112.39-18.55L112.39-18.55 112.39 0 108.39 0ZM152.53-12.45L152.53-12.45Q152.53-7.6 154.71-5.23 156.89-2.85 160.59-2.85L160.59-2.85Q164.24-2.85 166.29-5.2 168.34-7.55 168.34-12.25L168.34-12.25Q168.34-17.25 166.16-19.7 163.99-22.15 160.24-22.15L160.24-22.15Q156.49-22.15 154.51-19.73 152.53-17.3 152.53-12.45ZM148.28-12.5L148.28-12.5Q148.28-16.3 149.49-18.82 150.69-21.35 152.53-22.88 154.39-24.4 156.51-25.03 158.64-25.65 160.53-25.65L160.53-25.65Q162.34-25.65 164.46-25.08 166.59-24.5 168.39-23.03 170.19-21.55 171.39-19.07 172.59-16.6 172.59-12.8L172.59-12.8Q172.59-8.85 171.36-6.25 170.14-3.65 168.29-2.13 166.44-0.6 164.28 0.03 162.14 0.65 160.28 0.65L160.28 0.65Q158.39 0.65 156.28 0.05 154.19-0.55 152.41-2.02 150.64-3.5 149.46-6.05 148.28-8.6 148.28-12.5ZM184.33 0L175.08-25.15 179.48-25.15 185.58-7.4 186.68-3.45 186.73-3.45 187.88-7.4 194.38-25.15 198.58-25.15 188.83 0 184.33 0ZM220.23-3.95L220.98-0.6Q219.83-0.25 218.61 0 217.38 0.25 215.91 0.45 214.43 0.65 212.83 0.65L212.83 0.65Q210.33 0.65 208.18-0.05 206.03-0.75 204.43-2.3 202.83-3.85 201.91-6.33 200.98-8.8 200.98-12.4L200.98-12.4Q200.98-15.65 201.88-18.13 202.78-20.6 204.36-22.28 205.93-23.95 208.06-24.8 210.18-25.65 212.68-25.65L212.68-25.65Q215.13-25.65 216.93-24.7 218.73-23.75 219.91-22.13 221.08-20.5 221.66-18.32 222.23-16.15 222.23-13.75L222.23-13.75 221.48-11.55 205.33-11.55Q205.33-10 205.73-8.45 206.13-6.9 207.11-5.65 208.08-4.4 209.66-3.63 211.23-2.85 213.58-2.85L213.58-2.85Q215.08-2.85 216.33-3.03 217.58-3.2 218.51-3.43 219.43-3.65 220.23-3.95L220.23-3.95ZM205.48-14.75L218.08-14.75Q218.08-15.1 217.93-16.3 217.78-17.5 217.23-18.8 216.68-20.1 215.53-21.13 214.38-22.15 212.48-22.15L212.48-22.15Q210.38-22.15 209.03-21.28 207.68-20.4 206.88-19.2 206.08-18 205.78-16.75 205.48-15.5 205.48-14.75L205.48-14.75Z" opacity="1" transform="matrix(1,0,0,1,0,0)" fill="black" class="wordmark-text-0"></path></svg></g></svg></g></svg></g></svg></g></svg></g></svg></g><defs><mask></mask></defs></svg><rect width="395.52" height="49.736649867149815" fill="black" stroke="none" visibility="hidden"></rect></g></mask><linearGradient x1="0" x2="1" y1="0.548" y2="0.55" id="d8c94d6d-db26-44b2-8808-ee05badfff32"><stop stop-color="#ff6cab" offset="0"></stop><stop stop-color="#7366ff" offset="1"></stop></linearGradient><rect width="395.52" height="49.736649867149815" fill="#ffffff" mask="url(#b2b473c1-b353-4ac8-a849-b5f959507f41)" data-fill-palette-color="accent"></rect></svg><rect width="395.52" height="49.736649867149815" fill="none" stroke="none" visibility="hidden"></rect></g></svg></g></svg>